<svg width="10" height="10" viewBox="0 0 10 10" fill="none" xmlns="http://www.w3.org/2000/svg">
<path d="M8.96937 3.65488C9.23241 3.39068 9.23241 2.96234 8.96937 2.69815C8.70629 2.43395 8.27975 2.43395 8.01666 2.69815L4.99995 5.72771L1.98331 2.69822C1.72024 2.43403 1.29371 2.43403 1.03064 2.69822C0.767558 2.96241 0.767558 3.39076 1.03064 3.65495L4.51383 7.15296C4.517 7.15629 4.52025 7.15958 4.52354 7.16288C4.60983 7.24958 4.71375 7.30783 4.82375 7.33763C4.82641 7.33838 4.82912 7.33908 4.83183 7.33975C5.055 7.39733 5.30175 7.33842 5.47645 7.16296C5.48079 7.15863 5.48504 7.15425 5.48925 7.14983L8.96937 3.65488Z" fill="#3D3D4E"/>
</svg>
