<svg width="14" height="14" viewBox="0 0 14 14" fill="none" xmlns="http://www.w3.org/2000/svg">
<path fill-rule="evenodd" clip-rule="evenodd" d="M0 3.5C0 3.01675 0.391751 2.625 0.875 2.625H13.125C13.6082 2.625 14 3.01675 14 3.5C14 3.98325 13.6082 4.375 13.125 4.375H0.875C0.391751 4.375 0 3.98325 0 3.5ZM1.75 7C1.75 6.51677 2.14175 6.125 2.625 6.125H11.375C11.8582 6.125 12.25 6.51677 12.25 7C12.25 7.48323 11.8582 7.875 11.375 7.875H2.625C2.14175 7.875 1.75 7.48323 1.75 7ZM4.375 9.625C3.89175 9.625 3.5 10.0168 3.5 10.5C3.5 10.9832 3.89175 11.375 4.375 11.375H9.625C10.1082 11.375 10.5 10.9832 10.5 10.5C10.5 10.0168 10.1082 9.625 9.625 9.625H4.375Z" fill="#0D0C22"/>
</svg>
