<svg width="17" height="16" viewBox="0 0 17 16" fill="none" xmlns="http://www.w3.org/2000/svg">
<path d="M8.72998 3C5.0999 3 2.71787 6.21774 1.91761 7.49059C1.82077 7.64462 1.77235 7.72163 1.74525 7.84042C1.72489 7.92964 1.72489 8.07036 1.74525 8.15958C1.77235 8.27837 1.82077 8.35539 1.91761 8.50941C2.71787 9.78226 5.0999 13 8.72998 13C12.3601 13 14.7421 9.78226 15.5424 8.50941C15.6392 8.3554 15.6876 8.27837 15.7147 8.15958C15.7351 8.07036 15.7351 7.92964 15.7147 7.84042C15.6876 7.72163 15.6392 7.64462 15.5424 7.4906C14.7421 6.21775 12.3601 3 8.72998 3Z" fill="#9E9EA7"/>
<path d="M8.72998 10C9.83455 10 10.73 9.10457 10.73 8C10.73 6.89543 9.83455 6 8.72998 6C7.62541 6 6.72998 6.89543 6.72998 8C6.72998 9.10457 7.62541 10 8.72998 10Z" fill="white"/>
</svg>
